<svg width="810" height="810" viewBox="0 0 810 810" fill="none" xmlns="http://www.w3.org/2000/svg">
<path d="M651 337.5C651 272.522 625.188 210.205 579.241 164.259C533.295 118.312 470.978 92.5 406 92.5C341.022 92.5 278.705 118.312 232.759 164.259C186.812 210.205 161 272.522 161 337.5C161 413.327 203.533 493.808 257.211 564.334C309.832 633.472 370.203 689.226 401.22 716.07C402.154 716.683 403.199 717.114 404.299 717.334C405.585 717.591 406.912 717.556 408.183 717.231C421.56 713.814 435.174 721.889 438.592 735.266C442.009 748.643 433.935 762.258 420.558 765.676C412.027 767.855 403.115 768.089 394.481 766.36C385.848 764.632 377.713 760.985 370.679 755.688C370.233 755.353 369.8 755.003 369.378 754.639C337.361 726.994 273.49 668.281 217.424 594.616C161.937 521.713 111 430.186 111 337.5C111 259.261 142.08 184.227 197.403 128.903C252.727 73.5801 327.761 42.5 406 42.5C484.239 42.5 559.273 73.5801 614.597 128.903C669.92 184.227 701 259.261 701 337.5C701 353.226 699.54 368.867 696.853 384.363C694.494 397.967 681.553 407.083 667.949 404.725C654.345 402.366 645.229 389.425 647.588 375.821C649.828 362.901 651 350.124 651 337.5Z" fill="url(#paint0_linear_30_9)"/>
<path d="M742.5 742.5L679.05 679.05" stroke="#4A90D9" stroke-width="50" stroke-linecap="round" stroke-linejoin="round"/>
<path d="M405 438.75C460.919 438.75 506.25 393.419 506.25 337.5C506.25 281.581 460.919 236.25 405 236.25C349.081 236.25 303.75 281.581 303.75 337.5C303.75 393.419 349.081 438.75 405 438.75Z" stroke="url(#paint1_linear_30_9)" stroke-width="50" stroke-linecap="round" stroke-linejoin="round"/>
<path d="M607.5 708.75C663.419 708.75 708.75 663.419 708.75 607.5C708.75 551.581 663.419 506.25 607.5 506.25C551.581 506.25 506.25 551.581 506.25 607.5C506.25 663.419 551.581 708.75 607.5 708.75Z" stroke="#4A90D9" stroke-width="50" stroke-linecap="round" stroke-linejoin="round"/>
<defs>
<linearGradient id="paint0_linear_30_9" x1="406" y1="67.5" x2="406" y2="742.504" gradientUnits="userSpaceOnUse">
<stop offset="0.475962" stop-color="#4A90D9"/>
<stop offset="1" stop-color="#5FD9C5"/>
</linearGradient>
<linearGradient id="paint1_linear_30_9" x1="405" y1="236.25" x2="405" y2="438.75" gradientUnits="userSpaceOnUse">
<stop stop-color="#4A90D9"/>
<stop offset="1" stop-color="#5FD9C5"/>
</linearGradient>
</defs>
</svg>
